<?xml version="1.0" encoding="UTF-8" standalone="no"?>
<!-- Created with Inkscape (http://www.inkscape.org/) -->

<svg
   xmlns:dc="http://purl.org/dc/elements/1.1/"
   xmlns:cc="http://creativecommons.org/ns#"
   xmlns:rdf="http://www.w3.org/1999/02/22-rdf-syntax-ns#"
   xmlns:svg="http://www.w3.org/2000/svg"
   xmlns="http://www.w3.org/2000/svg"
   xmlns:sodipodi="http://sodipodi.sourceforge.net/DTD/sodipodi-0.dtd"
   xmlns:inkscape="http://www.inkscape.org/namespaces/inkscape"
   width="64px"
   height="64px"
   id="svg3184"
   version="1.1"
   inkscape:version="0.48.4 r9939"
   sodipodi:docname="New document 5">
  <defs
     id="defs3186" />
  <sodipodi:namedview
     id="base"
     pagecolor="#ffffff"
     bordercolor="#666666"
     borderopacity="1.0"
     inkscape:pageopacity="0.0"
     inkscape:pageshadow="2"
     inkscape:zoom="11"
     inkscape:cx="66.075494"
     inkscape:cy="38.748637"
     inkscape:current-layer="g3166"
     showgrid="true"
     inkscape:document-units="px"
     inkscape:grid-bbox="true"
     inkscape:window-width="1920"
     inkscape:window-height="1137"
     inkscape:window-x="-8"
     inkscape:window-y="-8"
     inkscape:window-maximized="1" />
  <metadata
     id="metadata3189">
    <rdf:RDF>
      <cc:Work
         rdf:about="">
        <dc:format>image/svg+xml</dc:format>
        <dc:type
           rdf:resource="http://purl.org/dc/dcmitype/StillImage" />
        <dc:title></dc:title>
      </cc:Work>
    </rdf:RDF>
  </metadata>
  <g
     id="layer1"
     inkscape:label="Layer 1"
     inkscape:groupmode="layer">
    <g
       id="g3166"
       transform="matrix(0.14312232,0,0,0.14312232,-21.139333,-13.330775)">
      <path
         style="fill:#e8a45b"
         d="m 256.06393,400.69936 c -23.48402,-2.84498 -44.07945,-17.44999 -54.53866,-38.67542 -4.84224,-9.82661 -7.0251,-19.45849 -7.02227,-30.98575 0.002,-6.64396 0.63907,-11.89592 2.1408,-17.63866 6.40645,-24.49873 26.01828,-43.9741 50.47668,-50.12548 6.27016,-1.57697 38.91665,-41.4855 46.03358,-41.4855 7.27738,0 -17.7463,39.90845 -10.97433,41.64408 28.48326,8.00117 48.65236,34.46639 51.85909,60.36853 0.45886,4.19918 0.1846,14.77079 -0.48559,18.7171 -2.01703,11.87665 -7.00917,23.02575 -14.53321,32.45746 -4.59643,5.76181 -12.10054,12.32486 -18.53818,16.21338 -13.02004,7.86447 -29.27487,11.34478 -44.41791,9.51026 z"
         id="path3180"
         inkscape:connector-curvature="0"
         sodipodi:nodetypes="sscsssccssss" />
      <path
         style="fill:#e14d4d"
         d="m 348.18058,538.81075 c -86.09416,-8.99022 -161.02475,-69.45489 -188.07049,-151.76203 -19.61692,-59.69936 -12.90921,-126.81544 18.06918,-180.7969 32.728,-57.03023 88.14398,-96.56857 152.62851,-108.897801 11.26864,-2.154527 17.73231,-2.734599 34.98788,-3.139932 13.00871,-0.305575 24.95574,-0.05151 31,0.659254 57.9896,6.819149 109.62775,34.745609 147.15957,79.585469 19.80733,23.66413 35.49672,54.02553 43.66576,84.5 11.01965,41.10864 9.64452,88.6818 -3.72757,128.95617 -4.83941,14.57545 -16.07093,37.76243 -24.48288,50.54383 -42.23074,64.16679 -113.0243,102.10837 -189.13656,101.36712 -7.50423,-0.0731 -17.44626,-0.52991 -22.0934,-1.01518 z M 267.49283,346.7365 c 12.61751,-12.64007 9.72116,-17.75211 8.79063,-19.49082 -1.50686,-2.8156 -7.25008,-6.97634 -13.91807,-10.08312 -4.87458,-2.27119 -7.09412,-2.67466 -14.78732,-2.68802 -8.46242,-0.0147 -9.54676,0.22886 -16.65173,3.74033 -7.95849,3.93329 -14.41123,9.91354 -13.06486,12.10819 1.69737,2.76682 28.19977,33.9278 29.45095,33.9278 0.73885,0 12.29191,-9.61177 20.1804,-17.51436 z"
         id="path3178"
         inkscape:connector-curvature="0"
         sodipodi:nodetypes="ssssssssssssssssssss" />
      <path
         style="fill:#373740"
         d="M 348.18058,538.81075 C 325.09205,536.39977 297.3763,528.48773 275.82085,518.15415 216.75798,489.8397 174.15226,438.71356 156.15758,374.5603 l -2.2155,-7.89852 24.33627,-24.35148 c 13.38495,-13.39332 24.78588,-24.35149 25.3354,-24.35149 0.54952,0 10.56496,9.55808 22.25654,21.24017 l 21.25742,21.24017 61.77,-61.74017 c 33.9735,-33.95709 62.37988,-61.74017 63.12529,-61.74017 0.7454,0 28.95354,27.51413 62.68474,61.14252 l 61.32947,61.14252 21.13643,-20.39252 c 11.62503,-11.21589 21.59959,-20.56042 22.16567,-20.76563 0.56609,-0.2052 12.03204,10.5948 25.47988,24 l 24.45064,24.37311 -0.56489,4.35261 c -1.78751,13.77341 -17.08152,49.09073 -29.2944,67.64739 -42.23074,64.16679 -113.0243,102.10837 -189.13656,101.36712 -7.50423,-0.0731 -17.44626,-0.52991 -22.0934,-1.01518 z"
         id="path3172"
         inkscape:connector-curvature="0" />
    </g>
  </g>
</svg>
